<svg xmlns="http://www.w3.org/2000/svg" viewBox="0 0 100 100">
  <polygon points="50,50 44,50 40,18 48,14 54,18 56,50" fill="#b8a8f0" opacity="0.85"/>
  <polygon points="50,50 56,50 72,26 66,20 60,24 54,50" fill="#b8a8f0" opacity="0.62"/>
  <polygon points="50,50 44,50 28,30 34,24 40,28 46,50" fill="#b8a8f0" opacity="0.50"/>
  <polygon points="50,50 56,50 80,44 78,36 70,38 54,50" fill="#b8a8f0" opacity="0.35"/>
  <polygon points="50,50 44,50 20,46 22,38 30,40 46,50" fill="#b8a8f0" opacity="0.25"/>
  <circle cx="50" cy="50" r="5.5" fill="#b8a8f0" opacity="0.97"/>
</svg>
